{
	"asset":{
		"generator":"Khronos glTF Blender I/O v4.3.47",
		"version":"2.0"
	},
	"scene":0,
	"scenes":[
		{
			"name":"Scene",
			"nodes":[
				0
			]
		}
	],
	"nodes":[
		{
			"mesh":0,
			"name":"Text.003"
		}
	],
	"materials":[
		{
			"doubleSided":true,
			"name":"Material.004",
			"pbrMetallicRoughness":{
				"baseColorFactor":[
					1,
					0.7379114031791687,
					0.2788945138454437,
					1
				],
				"metallicFactor":0,
				"roughnessFactor":0.5
			}
		},
		{
			"doubleSided":true,
			"name":"Material.003",
			"pbrMetallicRoughness":{
				"baseColorFactor":[
					0.7758172750473022,
					0.7758229970932007,
					0.775822639465332,
					1
				],
				"metallicFactor":0,
				"roughnessFactor":0.5
			}
		}
	],
	"meshes":[
		{
			"name":"Text.004",
			"primitives":[
				{
					"attributes":{
						"POSITION":0,
						"NORMAL":1,
						"TEXCOORD_0":2
					},
					"indices":3,
					"material":0
				},
				{
					"attributes":{
						"POSITION":4,
						"NORMAL":5,
						"TEXCOORD_0":6
					},
					"indices":7,
					"material":1
				}
			]
		}
	],
	"accessors":[
		{
			"bufferView":0,
			"componentType":5126,
			"count":4047,
			"max":[
				1.734963059425354,
				0.05656512454152107,
				0.44231075048446655
			],
			"min":[
				-3.0280375480651855,
				-0.056565139442682266,
				-1.257689356803894
			],
			"type":"VEC3"
		},
		{
			"bufferView":1,
			"componentType":5126,
			"count":4047,
			"type":"VEC3"
		},
		{
			"bufferView":2,
			"componentType":5126,
			"count":4047,
			"type":"VEC2"
		},
		{
			"bufferView":3,
			"componentType":5123,
			"count":8016,
			"type":"SCALAR"
		},
		{
			"bufferView":4,
			"componentType":5126,
			"count":1862,
			"max":[
				1.751725435256958,
				0.05656512454152107,
				1.0536518096923828
			],
			"min":[
				-0.310274600982666,
				-0.05656514689326286,
				-0.9278699159622192
			],
			"type":"VEC3"
		},
		{
			"bufferView":5,
			"componentType":5126,
			"count":1862,
			"type":"VEC3"
		},
		{
			"bufferView":6,
			"componentType":5126,
			"count":1862,
			"type":"VEC2"
		},
		{
			"bufferView":7,
			"componentType":5123,
			"count":3612,
			"type":"SCALAR"
		}
	],
	"bufferViews":[
		{
			"buffer":0,
			"byteLength":48564,
			"byteOffset":0,
			"target":34962
		},
		{
			"buffer":0,
			"byteLength":48564,
			"byteOffset":48564,
			"target":34962
		},
		{
			"buffer":0,
			"byteLength":32376,
			"byteOffset":97128,
			"target":34962
		},
		{
			"buffer":0,
			"byteLength":16032,
			"byteOffset":129504,
			"target":34963
		},
		{
			"buffer":0,
			"byteLength":22344,
			"byteOffset":145536,
			"target":34962
		},
		{
			"buffer":0,
			"byteLength":22344,
			"byteOffset":167880,
			"target":34962
		},
		{
			"buffer":0,
			"byteLength":14896,
			"byteOffset":190224,
			"target":34962
		},
		{
			"buffer":0,
			"byteLength":7224,
			"byteOffset":205120,
			"target":34963
		}
	],
	"buffers":[
		{
			"byteLength":212344,
			"uri":"text.bin"
		}
	]
}
