{
	"asset":{
		"generator":"Khronos glTF Blender I/O v4.3.47",
		"version":"2.0"
	},
	"extensionsUsed":[
		"KHR_materials_specular"
	],
	"scene":0,
	"scenes":[
		{
			"name":"Scene",
			"nodes":[
				0
			]
		}
	],
	"nodes":[
		{
			"mesh":0,
			"name":"door",
			"rotation":[
				1,
				0,
				0,
				8.146033536604591e-08
			],
			"scale":[
				-0.985728919506073,
				-1,
				-1
			]
		}
	],
	"materials":[
		{
			"doubleSided":true,
			"extensions":{
				"KHR_materials_specular":{
					"specularFactor":0
				}
			},
			"name":"dark grey",
			"pbrMetallicRoughness":{
				"baseColorFactor":[
					0.09530749171972275,
					0.11697071045637131,
					0.18782080709934235,
					1
				],
				"metallicFactor":0
			}
		},
		{
			"doubleSided":true,
			"extensions":{
				"KHR_materials_specular":{
					"specularFactor":0
				}
			},
			"name":"brown",
			"pbrMetallicRoughness":{
				"baseColorFactor":[
					0.18782080709934235,
					0.033104777336120605,
					0.03560132905840874,
					1
				],
				"metallicFactor":0
			}
		},
		{
			"doubleSided":true,
			"extensions":{
				"KHR_materials_specular":{
					"specularFactor":0
				}
			},
			"name":"dark brown",
			"pbrMetallicRoughness":{
				"baseColorFactor":[
					0.08437623083591461,
					0.019382359459996223,
					0.017641957849264145,
					1
				],
				"metallicFactor":0
			}
		}
	],
	"meshes":[
		{
			"name":"Cube.001",
			"primitives":[
				{
					"attributes":{
						"POSITION":0,
						"NORMAL":1,
						"TEXCOORD_0":2
					},
					"indices":3,
					"material":0
				},
				{
					"attributes":{
						"POSITION":4,
						"NORMAL":5,
						"TEXCOORD_0":6
					},
					"indices":7,
					"material":1
				},
				{
					"attributes":{
						"POSITION":8,
						"NORMAL":9,
						"TEXCOORD_0":10
					},
					"indices":11,
					"material":2
				}
			]
		}
	],
	"accessors":[
		{
			"bufferView":0,
			"componentType":5126,
			"count":372,
			"max":[
				1.9524773359298706,
				0.6631433963775635,
				0.14443908631801605
			],
			"min":[
				-0.0761193037033081,
				-0.5782365798950195,
				-0.2260294258594513
			],
			"type":"VEC3"
		},
		{
			"bufferView":1,
			"componentType":5126,
			"count":372,
			"type":"VEC3"
		},
		{
			"bufferView":2,
			"componentType":5126,
			"count":372,
			"type":"VEC2"
		},
		{
			"bufferView":3,
			"componentType":5123,
			"count":612,
			"type":"SCALAR"
		},
		{
			"bufferView":4,
			"componentType":5126,
			"count":168,
			"max":[
				2.0486514568328857,
				1.6680444478988647,
				0.00207601604051888
			],
			"min":[
				-0.06262755393981934,
				-1.1788616180419922,
				-0.18793918192386627
			],
			"type":"VEC3"
		},
		{
			"bufferView":5,
			"componentType":5126,
			"count":168,
			"type":"VEC3"
		},
		{
			"bufferView":6,
			"componentType":5126,
			"count":168,
			"type":"VEC2"
		},
		{
			"bufferView":7,
			"componentType":5123,
			"count":252,
			"type":"SCALAR"
		},
		{
			"bufferView":8,
			"componentType":5126,
			"count":48,
			"max":[
				1.5519672632217407,
				1.6348743438720703,
				-0.036088451743125916
			],
			"min":[
				0.4340566396713257,
				-1.1427087783813477,
				-0.14977478981018066
			],
			"type":"VEC3"
		},
		{
			"bufferView":9,
			"componentType":5126,
			"count":48,
			"type":"VEC3"
		},
		{
			"bufferView":10,
			"componentType":5126,
			"count":48,
			"type":"VEC2"
		},
		{
			"bufferView":11,
			"componentType":5123,
			"count":72,
			"type":"SCALAR"
		}
	],
	"bufferViews":[
		{
			"buffer":0,
			"byteLength":4464,
			"byteOffset":0,
			"target":34962
		},
		{
			"buffer":0,
			"byteLength":4464,
			"byteOffset":4464,
			"target":34962
		},
		{
			"buffer":0,
			"byteLength":2976,
			"byteOffset":8928,
			"target":34962
		},
		{
			"buffer":0,
			"byteLength":1224,
			"byteOffset":11904,
			"target":34963
		},
		{
			"buffer":0,
			"byteLength":2016,
			"byteOffset":13128,
			"target":34962
		},
		{
			"buffer":0,
			"byteLength":2016,
			"byteOffset":15144,
			"target":34962
		},
		{
			"buffer":0,
			"byteLength":1344,
			"byteOffset":17160,
			"target":34962
		},
		{
			"buffer":0,
			"byteLength":504,
			"byteOffset":18504,
			"target":34963
		},
		{
			"buffer":0,
			"byteLength":576,
			"byteOffset":19008,
			"target":34962
		},
		{
			"buffer":0,
			"byteLength":576,
			"byteOffset":19584,
			"target":34962
		},
		{
			"buffer":0,
			"byteLength":384,
			"byteOffset":20160,
			"target":34962
		},
		{
			"buffer":0,
			"byteLength":144,
			"byteOffset":20544,
			"target":34963
		}
	],
	"buffers":[
		{
			"byteLength":20688,
			"uri":"door.bin"
		}
	]
}
